<svg height="512" viewBox="0 0 512 512" width="512" xmlns="http://www.w3.org/2000/svg"><g id="filled_outline" data-name="filled outline"><rect fill="#5ebef7" height="464" rx="20" width="464" x="24" y="24"/><path d="m80 152h352v288h-352z" fill="#ea9d2d"/><path d="m44 24h424a20 20 0 0 1 20 20v76a0 0 0 0 1 0 0h-464a0 0 0 0 1 0 0v-76a20 20 0 0 1 20-20z" fill="#cbcbcb"/><g fill="#b9b9b9"><circle cx="256" cy="76" r="16"/><circle cx="176" cy="76" r="16"/><circle cx="336" cy="76" r="16"/><path d="m152 360h208v48h-208z"/></g><path d="m152 360h208v16h-208z" fill="#9e9e9e"/><path d="m162.016 344a64.027 64.027 0 0 1 61.984-48h64a64.027 64.027 0 0 1 61.984 48z" fill="#fbb540"/><rect fill="#b9b9b9" height="32" rx="16" width="240" x="136" y="328"/><path d="m80 400h352v16h-352z" fill="#c38325"/><path d="m260 272a8 8 0 0 1 -8-8c0-4.019-.982-5.574-2.764-8.4a30.014 30.014 0 0 1 0-33.876c1.783-2.822 2.764-4.376 2.764-8.394a8 8 0 0 1 16 0 28.632 28.632 0 0 1 -5.236 16.938c-1.783 2.822-2.764 4.376-2.764 8.394s.982 5.573 2.764 8.4a28.635 28.635 0 0 1 5.236 16.938 8 8 0 0 1 -8 8z" fill="#c38325"/><path d="m304 272a8 8 0 0 1 -8-8c0-4.019-.982-5.574-2.764-8.4a30.014 30.014 0 0 1 0-33.876c1.783-2.822 2.764-4.376 2.764-8.394a8 8 0 0 1 16 0 28.632 28.632 0 0 1 -5.236 16.938c-1.783 2.822-2.764 4.376-2.764 8.394s.982 5.573 2.764 8.4a28.635 28.635 0 0 1 5.236 16.938 8 8 0 0 1 -8 8z" fill="#c38325"/><path d="m216 272a8 8 0 0 1 -8-8c0-4.019-.982-5.574-2.764-8.4a30.014 30.014 0 0 1 0-33.876c1.783-2.822 2.764-4.376 2.764-8.394a8 8 0 0 1 16 0 28.632 28.632 0 0 1 -5.236 16.938c-1.783 2.822-2.764 4.376-2.764 8.394s.982 5.573 2.764 8.4a28.635 28.635 0 0 1 5.236 16.938 8 8 0 0 1 -8 8z" fill="#c38325"/><rect fill="#8f6934" height="32" rx="16" width="288" x="112" y="152"/><circle cx="256" cy="72" fill="#fbfdff" r="16"/><circle cx="176" cy="72" fill="#fbfdff" r="16"/><circle cx="336" cy="72" fill="#fbfdff" r="16"/><path d="m80 448h352a8 8 0 0 0 8-8v-288a8 8 0 0 0 -8-8h-352a8 8 0 0 0 -8 8v288a8 8 0 0 0 8 8zm48-288h256a8 8 0 0 1 0 16h-256a8 8 0 0 1 0-16zm-40 0h17.376a23.992 23.992 0 0 0 22.624 32h256a23.992 23.992 0 0 0 22.624-32h17.376v240h-56v-33.376a24 24 0 0 0 -8-46.624h-12.133a71.853 71.853 0 0 0 -59.867-32h-64a72.286 72.286 0 0 0 -59.872 32h-12.128a24 24 0 0 0 -8 46.624v33.376h-56zm64 192a8 8 0 0 1 0-16h208a8 8 0 0 1 0 16zm200 16v32h-192v-32zm-167.164-48a56.2 56.2 0 0 1 39.164-16h64a55.838 55.838 0 0 1 39.167 16zm-96.836 96h336v16h-336z"/><path d="m468 16h-424a28.032 28.032 0 0 0 -28 28v424a28.032 28.032 0 0 0 28 28h424a28.032 28.032 0 0 0 28-28v-424a28.032 28.032 0 0 0 -28-28zm12 452a12.013 12.013 0 0 1 -12 12h-424a12.013 12.013 0 0 1 -12-12v-340h448zm0-356h-448v-68a12.013 12.013 0 0 1 12-12h424a12.013 12.013 0 0 1 12 12z"/><path d="m256 48a24 24 0 1 0 24 24 24.027 24.027 0 0 0 -24-24zm0 32a8 8 0 1 1 8-8 8.009 8.009 0 0 1 -8 8z"/><path d="m176 48a24 24 0 1 0 24 24 24.027 24.027 0 0 0 -24-24zm0 32a8 8 0 1 1 8-8 8.009 8.009 0 0 1 -8 8z"/><path d="m336 48a24 24 0 1 0 24 24 24.027 24.027 0 0 0 -24-24zm0 32a8 8 0 1 1 8-8 8.009 8.009 0 0 1 -8 8z"/><path d="m252 264a8 8 0 0 0 16 0 28.635 28.635 0 0 0 -5.236-16.939c-1.782-2.822-2.764-4.377-2.764-8.4s.981-5.572 2.764-8.394a28.632 28.632 0 0 0 5.236-16.933 8 8 0 0 0 -16 0c0 4.018-.981 5.572-2.764 8.394a30.014 30.014 0 0 0 0 33.876c1.782 2.822 2.764 4.377 2.764 8.396z"/><path d="m296 264a8 8 0 0 0 16 0 28.635 28.635 0 0 0 -5.236-16.939c-1.782-2.822-2.764-4.377-2.764-8.4s.981-5.572 2.764-8.394a28.632 28.632 0 0 0 5.236-16.933 8 8 0 0 0 -16 0c0 4.018-.981 5.572-2.764 8.394a30.014 30.014 0 0 0 0 33.876c1.782 2.822 2.764 4.377 2.764 8.396z"/><path d="m208 264a8 8 0 0 0 16 0 28.635 28.635 0 0 0 -5.236-16.939c-1.782-2.822-2.764-4.377-2.764-8.4s.981-5.572 2.764-8.394a28.632 28.632 0 0 0 5.236-16.933 8 8 0 0 0 -16 0c0 4.018-.981 5.572-2.764 8.394a30.014 30.014 0 0 0 0 33.876c1.782 2.822 2.764 4.377 2.764 8.396z"/></g></svg>